####
#
# OBJ File Generated by Meshlab
#
####
# Object link_1.obj
#
# Vertices: 112
# Faces: 220
#
####
vn 0.000000 2.339001 -1.466540
v -0.037910 0.007493 -0.015240
vn -0.202987 0.142133 -0.789809
v -0.044890 0.006350 -0.015367
vn -0.470544 0.347548 -1.247619
v -0.067049 0.005715 -0.009017
vn -0.591632 0.524140 -2.226667
v -0.061361 0.004753 -0.011366
vn -0.433358 0.383922 -1.262421
v -0.062376 0.003607 -0.011366
vn -0.009770 0.286793 -0.208618
v -0.058820 0.011307 -0.009017
vn 0.594554 -0.037851 -1.754647
v 0.006636 -0.005698 -0.015367
vn 0.002747 -0.000175 -0.008108
v 0.024937 -0.012602 -0.009017
vn 0.064393 -0.366628 -1.207051
v 0.002856 -0.027794 -0.009017
vn 0.002094 -0.001987 -0.008674
v 0.020371 -0.019122 -0.009017
vn 0.357032 -0.338815 -1.478899
v 0.006364 -0.006166 -0.015367
vn 0.060901 -0.522930 1.737150
v 0.005855 -0.006350 0.015367
vn -0.366841 0.427240 -1.200405
v -0.063575 0.009453 -0.009017
vn -0.082952 0.047892 0.207942
v -0.078843 -0.014713 0.009017
vn -0.446748 0.329972 1.184525
v -0.065523 0.007781 0.009017
vn -0.028546 -0.421976 -1.879571
v -0.057518 -0.033780 -0.009017
vn -0.005939 -0.007258 0.053808
v -0.044890 -0.006350 0.015367
vn -0.171888 -0.299695 -1.867230
v -0.072271 -0.030209 -0.009017
vn -0.556340 0.234775 -2.044506
v -0.063087 0.002252 -0.011366
vn -0.170745 0.072054 -0.627474
v -0.049336 -0.000000 -0.015367
vn -0.008011 0.003532 0.028218
v -0.063087 0.002252 0.011366
vn 0.377627 -0.219907 -1.324498
v 0.006490 -0.006032 -0.015367
vn 0.794614 1.318733 -0.010640
v 0.002669 0.005762 -0.015367
vn 0.001179 0.010826 -0.002540
v 0.001367 0.006201 -0.015367
vn 0.826268 0.134038 -2.146627
v 0.006341 0.000332 -0.015367
vn 0.285375 0.046294 -0.741398
v 0.006121 0.001689 -0.015367
vn 0.156289 0.164695 -0.061197
v 0.003847 0.005052 -0.015367
vn 1.040091 1.239532 -0.008288
v 0.004098 0.004884 -0.009017
vn 0.243287 0.096535 0.503617
v 0.005614 0.002967 0.015367
vn 1.090392 0.432660 2.257170
v 0.006121 0.001689 0.015367
vn 1.040091 1.239532 0.008288
v 0.004098 0.004884 0.009017
vn 0.354451 -0.287987 -1.368481
v 0.022887 -0.016025 -0.009017
vn 0.372656 -0.223069 1.313330
v 0.024937 -0.012602 0.009017
vn -0.591632 0.524140 2.226667
v -0.061361 0.004753 0.011366
vn -0.003985 -0.021795 -0.103583
v -0.044890 -0.006350 -0.015367
vn -0.215364 -0.170040 1.649547
v -0.077290 -0.026914 0.009017
vn -0.215364 -0.170040 -1.649547
v -0.077290 -0.026914 -0.009017
vn 0.149079 1.337994 0.004623
v 0.001367 0.006201 0.015367
vn 0.061463 0.551631 0.001906
v -0.010224 0.007493 0.015240
vn 0.200069 0.135311 -0.277035
v 0.004844 0.004106 -0.015367
vn 0.310911 -0.336724 -1.372890
v 0.017440 -0.021829 -0.009017
vn 0.310911 -0.336724 1.372890
v 0.017440 -0.021829 0.009017
vn 0.002094 -0.001987 0.008674
v 0.020371 -0.019122 0.009017
vn 0.241707 -0.369164 1.338556
v 0.006364 -0.006166 0.015367
vn 0.001513 -0.002311 0.008379
v 0.014153 -0.024090 0.009017
vn 0.594554 -0.037851 1.754647
v 0.006636 -0.005698 0.015367
vn 0.000000 0.188612 0.118259
v -0.056253 0.011395 0.009017
vn -0.026559 0.013939 0.099139
v -0.049336 0.000000 0.015367
vn -0.455229 0.238922 1.699279
v -0.062376 0.003607 0.011366
vn -0.202987 0.142133 0.789809
v -0.044890 0.006350 0.015367
vn -0.191157 0.038456 0.813656
v -0.080162 -0.018878 0.009017
vn -0.199223 -0.003624 0.977913
v -0.080123 -0.021075 0.009017
vn -0.376772 1.420918 1.935827
v -0.058820 0.011307 0.009017
vn -0.527205 1.002023 2.041031
v -0.061302 0.010649 0.009017
vn 0.068357 0.202617 0.001191
v 0.001470 0.006204 0.009017
vn 0.078819 0.216554 0.000185
v 0.002669 0.005762 0.015367
vn 0.160570 -1.562568 0.000000
v -0.053697 -0.033605 -0.009017
vn 0.129170 -1.257000 0.000000
v -0.053697 -0.033605 0.009017
vn 0.121365 1.431756 0.000000
v -0.010224 0.007493 -0.015240
vn 0.421500 -1.285732 0.000000
v 0.006786 -0.027103 -0.009017
vn 0.489329 -1.492635 0.000000
v 0.010577 -0.025861 -0.009017
vn 0.271730 -1.547115 0.000000
v 0.006786 -0.027103 0.009017
vn 0.234064 -1.332660 0.000000
v 0.002856 -0.027794 0.009017
vn -0.113774 0.084035 0.000000
v -0.067049 0.005715 0.009017
vn -0.781504 -1.362590 0.000000
v -0.075589 -0.028306 0.009017
vn -0.103993 -0.181317 0.000000
v -0.075589 -0.028306 -0.009017
vn -0.677511 -1.181273 0.000000
v -0.072271 -0.030209 0.009017
vn -1.326357 0.584758 0.000000
v -0.078843 -0.014713 -0.009017
vn -1.437310 0.633674 0.000000
v -0.079729 -0.016723 -0.009017
vn -0.118875 0.023915 0.000000
v -0.079729 -0.016723 0.009017
vn 1.620082 2.475123 0.000000
v 0.002861 0.005697 0.009017
vn 0.074008 0.113067 0.000000
v 0.003847 0.005052 0.015367
vn 0.026433 0.040384 0.000000
v 0.002861 0.005697 -0.009017
vn 1.347783 -0.806773 0.000000
v 0.022887 -0.016025 0.009017
vn 0.096608 -0.195131 0.000000
v 0.010577 -0.025861 0.009017
vn 0.096608 -0.195131 0.000000
v 0.014153 -0.024090 -0.009017
vn -0.004816 0.141362 0.000000
v -0.056253 0.011395 -0.009017
vn 0.062282 -1.360348 0.000000
v -0.057518 -0.033780 0.009017
vn -0.622445 -1.442208 0.000000
v -0.068759 -0.031725 -0.009017
vn -1.570537 -0.028572 0.000000
v -0.080162 -0.018878 -0.009017
vn -1.409731 -0.337377 0.000000
v -0.080123 -0.021075 -0.009017
vn -1.527658 -0.365599 0.000000
v -0.079611 -0.023212 -0.009017
vn -1.413309 -0.685535 0.000000
v -0.079611 -0.023212 0.009017
vn -1.232848 -0.973390 0.000000
v -0.078652 -0.025189 -0.009017
vn -1.137679 -0.898250 0.000000
v -0.078652 -0.025189 0.009017
vn 0.000000 0.000000 -1.414217
v 0.005614 0.002967 -0.015367
vn 0.000000 0.000000 -1.480709
v 0.005855 -0.006350 -0.015367
vn 0.000000 0.000000 -1.641228
v 0.006037 -0.006329 -0.015367
vn 0.000000 0.000000 -0.433839
v 0.000000 0.006350 -0.015367
vn 0.000000 0.000000 -2.505152
v 0.006583 -0.005874 -0.015367
vn 0.000000 0.000000 -1.854156
v 0.006210 -0.006266 -0.015367
vn 0.000000 0.000000 -0.068901
v 0.006648 -0.005515 -0.015367
vn 0.000000 0.325551 2.929946
v -0.037910 0.007493 0.015240
vn 0.000000 0.009021 0.081192
v -0.000000 0.006350 0.015367
vn -0.402601 1.518326 0.000000
v -0.061302 0.010649 -0.009017
vn -0.282525 -1.545180 0.000000
v -0.061335 -0.033522 0.009017
vn -0.244930 -1.339566 0.000000
v -0.061335 -0.033522 -0.009017
vn -0.455405 -1.503332 0.000000
v -0.068759 -0.031725 0.009017
vn -0.455405 -1.503332 0.000000
v -0.065098 -0.032834 -0.009017
vn -0.060600 -0.200045 0.000000
v -0.065098 -0.032834 0.009017
vn 0.186254 1.703797 0.000000
v 0.000000 0.006375 -0.009017
vn 0.229830 2.102426 -0.000000
v 0.000000 0.006375 0.009017
vn 0.000000 0.000000 0.570446
v 0.006583 -0.005874 0.015367
vn 0.000000 0.000000 2.502501
v 0.004844 0.004106 0.015367
vn 0.000000 0.000000 0.013501
v 0.006341 0.000332 0.015367
vn 0.000000 0.000000 0.347821
v 0.006037 -0.006329 0.015367
vn 0.000000 0.000000 2.909701
v 0.006490 -0.006032 0.015367
vn 0.000000 0.000000 0.231878
v 0.006210 -0.006266 0.015367
vn 0.000000 0.000000 0.115944
v 0.006648 -0.005515 0.015367
vn -0.092142 0.107313 0.000000
v -0.065523 0.007781 -0.009017
vn -0.092142 0.107313 0.000000
v -0.063575 0.009453 0.009017
vn 0.537243 1.476066 0.000000
v 0.001470 0.006204 -0.009017
# 112 vertices, 0 vertices normals

f 59//59 1//1 77//77
f 2//2 20//20 5//5
f 63//63 62//62 106//106
f 88//88 9//9 87//87
f 87//87 9//9 57//57
f 5//5 3//3 110//110
f 5//5 4//4 2//2
f 4//4 5//5 110//110
f 67//67 17//17 65//65
f 95//95 6//6 2//2
f 6//6 1//1 2//2
f 1//1 6//6 77//77
f 84//84 20//20 35//35
f 20//20 80//80 69//69
f 7//7 92//92 8//8
f 62//62 75//75 106//106
f 61//61 60//60 88//88
f 9//9 88//88 60//60
f 22//22 10//10 11//11
f 45//45 108//108 75//75
f 75//75 108//108 106//106
f 21//21 49//49 14//14
f 63//63 12//12 58//58
f 63//63 106//106 12//12
f 13//13 95//95 2//2
f 4//4 13//13 2//2
f 4//4 110//110 13//13
f 49//49 64//64 14//14
f 15//15 64//64 49//49
f 16//16 97//97 35//35
f 87//87 16//16 35//35
f 87//87 57//57 16//16
f 35//35 79//79 18//18
f 84//84 82//82 20//20
f 17//17 36//36 65//65
f 18//18 66//66 35//35
f 20//20 19//19 5//5
f 69//69 19//19 20//20
f 3//3 5//5 68//68
f 19//19 68//68 5//5
f 68//68 19//19 69//69
f 70//70 21//21 14//14
f 22//22 90//90 8//8
f 90//90 7//7 8//8
f 61//61 88//88 91//91
f 73//73 27//27 23//23
f 24//24 89//89 59//59
f 94//94 38//38 39//39
f 92//92 25//25 8//8
f 25//25 26//26 8//8
f 27//27 8//8 40//40
f 27//27 28//28 8//8
f 30//30 105//105 33//33
f 105//105 109//109 33//33
f 29//29 30//30 33//33
f 104//104 29//29 33//33
f 31//31 72//72 33//33
f 72//72 104//104 33//33
f 71//71 56//56 72//72
f 22//22 8//8 32//32
f 10//10 22//22 32//32
f 11//11 76//76 91//91
f 91//91 76//76 61//61
f 74//74 107//107 43//43
f 74//74 33//33 107//107
f 15//15 49//49 34//34
f 34//34 49//49 50//50
f 97//97 99//99 35//35
f 35//35 99//99 79//79
f 96//96 78//78 17//17
f 17//17 78//78 12//12
f 12//12 78//78 58//58
f 98//98 17//17 67//67
f 20//20 81//81 80//80
f 82//82 81//81 20//20
f 36//36 17//17 85//85
f 35//35 37//37 84//84
f 66//66 37//37 35//35
f 38//38 102//102 39//39
f 26//26 86//86 8//8
f 40//40 8//8 86//86
f 10//10 41//41 11//11
f 76//76 11//11 41//41
f 44//44 42//42 43//43
f 107//107 44//44 43//43
f 42//42 44//44 45//45
f 44//44 108//108 45//45
f 109//109 46//46 33//33
f 39//39 47//47 93//93
f 53//53 93//93 47//47
f 50//50 93//93 53//53
f 21//21 48//48 49//49
f 50//50 49//49 48//48
f 70//70 48//48 21//21
f 70//70 51//51 48//48
f 52//52 48//48 51//51
f 52//52 83//83 48//48
f 85//85 48//48 83//83
f 85//85 17//17 48//48
f 54//54 50//50 53//53
f 17//17 100//100 96//96
f 98//98 100//100 17//17
f 59//59 101//101 24//24
f 107//107 33//33 103//103
f 46//46 103//103 33//33
f 54//54 111//111 50//50
f 34//34 111//111 15//15
f 50//50 111//111 34//34
f 101//101 112//112 24//24
f 24//24 112//112 23//23
f 23//23 112//112 73//73
f 56//56 55//55 38//38
f 71//71 55//55 56//56
f 55//55 102//102 38//38
f 57//57 9//9 58//58
f 9//9 63//63 58//58
f 77//77 39//39 59//59
f 47//47 39//39 77//77
f 60//60 75//75 62//62
f 75//75 60//60 61//61
f 9//9 60//60 63//63
f 62//62 63//63 60//60
f 110//110 64//64 15//15
f 3//3 64//64 110//110
f 66//66 18//18 67//67
f 65//65 66//66 67//67
f 64//64 3//3 68//68
f 64//64 68//68 14//14
f 68//68 70//70 14//14
f 70//70 68//68 69//69
f 51//51 70//70 80//80
f 70//70 69//69 80//80
f 1//1 89//89 2//2
f 59//59 89//89 1//1
f 28//28 31//31 33//33
f 28//28 33//33 8//8
f 28//28 72//72 31//31
f 28//28 27//27 72//72
f 71//71 72//72 73//73
f 73//73 72//72 27//27
f 33//33 32//32 8//8
f 74//74 32//32 33//33
f 74//74 43//43 32//32
f 10//10 32//32 43//43
f 76//76 75//75 61//61
f 75//75 76//76 45//45
f 47//47 77//77 53//53
f 6//6 53//53 77//77
f 57//57 58//58 78//78
f 16//16 57//57 78//78
f 16//16 78//78 97//97
f 96//96 97//97 78//78
f 18//18 98//98 67//67
f 79//79 98//98 18//18
f 51//51 80//80 81//81
f 51//51 81//81 52//52
f 52//52 81//81 83//83
f 81//81 82//82 83//83
f 82//82 85//85 83//83
f 84//84 85//85 82//82
f 37//37 85//85 84//84
f 85//85 37//37 36//36
f 66//66 65//65 37//37
f 36//36 37//37 65//65
f 20//20 86//86 35//35
f 87//87 35//35 86//86
f 11//11 86//86 22//22
f 89//89 86//86 2//2
f 2//2 86//86 20//20
f 87//87 86//86 88//88
f 25//25 86//86 26//26
f 91//91 86//86 11//11
f 7//7 86//86 92//92
f 90//90 86//86 7//7
f 23//23 86//86 24//24
f 89//89 24//24 86//86
f 90//90 22//22 86//86
f 91//91 88//88 86//86
f 23//23 27//27 86//86
f 25//25 92//92 86//86
f 40//40 86//86 27//27
f 43//43 41//41 10//10
f 42//42 41//41 43//43
f 76//76 41//41 45//45
f 42//42 45//45 41//41
f 50//50 94//94 93//93
f 39//39 93//93 94//94
f 6//6 54//54 53//53
f 6//6 95//95 54//54
f 96//96 100//100 97//97
f 100//100 99//99 97//97
f 100//100 98//98 79//79
f 99//99 100//100 79//79
f 39//39 101//101 59//59
f 102//102 101//101 39//39
f 48//48 103//103 50//50
f 50//50 103//103 94//94
f 38//38 94//94 103//103
f 12//12 103//103 17//17
f 72//72 103//103 104//104
f 105//105 103//103 109//109
f 29//29 104//104 103//103
f 108//108 103//103 106//106
f 12//12 106//106 103//103
f 38//38 103//103 56//56
f 105//105 30//30 103//103
f 29//29 103//103 30//30
f 72//72 56//56 103//103
f 44//44 107//107 103//103
f 44//44 103//103 108//108
f 46//46 109//109 103//103
f 48//48 17//17 103//103
f 15//15 111//111 110//110
f 13//13 110//110 111//111
f 54//54 95//95 111//111
f 13//13 111//111 95//95
f 71//71 73//73 55//55
f 112//112 55//55 73//73
f 55//55 101//101 102//102
f 101//101 55//55 112//112
# 220 faces, 0 coords texture

# End of File