####
#
# OBJ File Generated by Meshlab
#
####
# Object link_2.obj
#
# Vertices: 108
# Faces: 212
#
####
vn 0.000000 -0.137859 0.468205
v 0.005396 -0.006350 0.007320
vn -0.062201 0.058857 -0.133295
v -0.063037 -0.012602 -0.017064
vn -0.373978 1.150984 0.141405
v -0.038658 0.006211 0.003320
vn 0.092103 -0.932608 2.553198
v -0.033769 -0.027602 0.000970
vn 0.000000 -0.137859 -0.468205
v 0.005396 -0.006350 -0.023414
vn -0.006926 0.059258 -0.000454
v -0.028130 0.007493 -0.023287
vn -0.300249 2.568787 -0.019677
v -0.038100 0.006375 -0.017064
vn -1.237508 1.474804 0.434843
v -0.042198 0.004884 0.000970
vn -0.027231 0.047166 0.050875
v -0.031496 0.006350 0.007320
vn -0.919131 1.591983 1.717160
v -0.039921 0.005801 0.003320
vn 0.020333 -0.048817 -0.080695
v 0.005770 -0.006252 -0.023414
vn 0.433738 0.030378 -0.107865
v 0.008786 -0.012423 -0.017064
vn -0.204605 -0.399212 -1.784149
v -0.049401 -0.025552 -0.017064
vn -0.155934 -0.233890 -1.163120
v -0.054903 -0.022323 -0.017064
vn -0.013851 -0.020776 -0.103317
v -0.031496 -0.006350 -0.023414
vn -0.176293 -0.208270 -1.173719
v -0.057341 -0.020259 -0.017064
vn -0.015920 -0.014949 0.097540
v -0.031496 -0.006350 0.007320
vn -0.116302 -0.465574 -1.763401
v -0.043311 -0.027450 -0.017064
vn -0.076043 -0.304412 -1.152986
v -0.046410 -0.026676 -0.017064
vn -0.373978 1.150984 -0.141405
v -0.038658 0.006211 -0.019413
vn -0.249412 0.277001 -0.512949
v -0.042057 0.004249 -0.019413
vn -0.919131 1.591983 -1.717160
v -0.039921 0.005801 -0.019413
vn -0.055579 0.061727 0.053578
v -0.041070 0.005137 0.003320
vn -0.249412 0.277001 0.512949
v -0.042057 0.004249 0.003320
vn -0.396345 1.088949 -0.127440
v -0.040961 0.005697 -0.017064
vn -0.320237 0.486897 -0.101174
v -0.041070 0.005137 -0.019413
vn 0.174007 1.728065 2.589084
v 0.000000 0.006350 0.007320
vn 1.512986 0.298088 -0.006805
v 0.006255 0.001232 -0.017064
vn 1.488130 0.405710 -0.009959
v 0.006263 0.001048 -0.023414
vn 0.268475 -1.242228 -2.498321
v -0.030646 -0.026927 -0.017064
vn 0.260174 -0.939874 -1.564722
v 0.005068 -0.017041 -0.017064
vn 0.396858 -0.982248 -1.625019
v 0.005589 -0.006325 -0.023414
vn -0.208503 -0.155090 1.203261
v -0.061435 -0.015366 0.000970
vn 0.941166 1.111751 0.013005
v 0.004568 0.004411 0.007320
vn 0.415258 1.337349 -0.009036
v 0.002481 0.005845 -0.023414
vn 0.061988 0.523465 -0.000629
v -0.009461 0.007493 -0.023287
vn 2.563550 0.168024 0.661958
v 0.006346 -0.000222 0.007320
vn 2.129679 -0.074370 0.961028
v 0.006158 -0.005615 0.007320
vn 0.497721 -0.400608 -0.712843
v 0.007244 -0.015797 -0.017064
vn 0.004988 -0.006699 -0.011235
v 0.006234 -0.016555 -0.017064
vn 0.095876 0.174759 -0.001615
v 0.002823 0.005716 -0.017064
vn 0.058920 0.189754 0.001282
v 0.001450 0.006208 0.000970
vn 0.415258 1.337349 0.009036
v 0.002481 0.005845 0.007320
vn 0.186743 1.576987 0.001896
v 0.001266 0.006223 0.007320
vn 0.010561 -0.004702 0.009868
v 0.008560 -0.013665 0.000970
vn 1.488130 0.405710 0.009959
v 0.006263 0.001048 0.007320
vn 0.010567 -0.004705 -0.009873
v 0.008560 -0.013665 -0.017064
vn 0.497721 -0.400608 0.712843
v 0.007244 -0.015797 0.000970
vn 0.378922 -0.504839 0.846763
v 0.006234 -0.016555 0.000970
vn 0.248335 -0.596220 0.985556
v 0.005068 -0.017041 0.000970
vn 0.020333 -0.048818 0.080696
v 0.005770 -0.006252 0.007320
vn -0.069452 0.619541 0.000000
v -0.028130 0.007493 0.007193
vn -0.182359 1.560175 0.000000
v -0.038100 0.006375 0.000970
vn -0.172851 1.478830 0.000000
v -0.039570 0.006204 0.000970
vn -0.182359 1.560175 0.000000
v -0.039570 0.006204 -0.017064
vn -0.633387 0.754841 0.000000
v -0.042198 0.004884 -0.017064
vn 1.497224 0.104860 0.000000
v 0.008697 -0.011163 -0.017064
vn -0.636477 -1.241851 0.000000
v -0.052244 -0.024095 0.000970
vn -0.061637 -0.164150 0.000000
v -0.046410 -0.026676 0.000970
vn -0.552181 -1.470543 0.000000
v -0.049401 -0.025552 0.000970
vn 0.137146 -1.388700 0.000000
v -0.036948 -0.027916 0.000970
vn 0.137146 -1.388700 0.000000
v -0.033769 -0.027602 -0.017064
vn 0.154378 -1.563192 0.000000
v -0.036948 -0.027916 -0.017064
vn 0.037040 -0.171383 0.000000
v -0.030646 -0.026927 0.000970
vn -0.380691 -1.523967 0.000000
v -0.043311 -0.027450 0.000970
vn -0.537243 1.476066 0.000000
v -0.040961 0.005697 0.000970
vn 0.000000 0.333572 3.002162
v -0.009461 0.007493 0.007193
vn 1.169209 -0.941077 0.000000
v 0.008036 -0.014814 0.000970
vn 1.223665 -0.984908 0.000000
v 0.008036 -0.014814 -0.017064
vn -0.774086 -1.161072 0.000000
v -0.052244 -0.024095 -0.017064
vn -0.113284 -0.133832 0.000000
v -0.054903 -0.022323 0.000970
vn -0.127822 -0.120024 0.000000
v -0.057341 -0.020259 0.000970
vn -0.181427 -1.383612 0.000000
v -0.040143 -0.027865 -0.017064
vn -0.204224 -1.557464 0.000000
v -0.040143 -0.027865 0.000970
vn 1.476833 -0.267654 0.000000
v 0.008786 -0.012423 0.000970
vn -0.151715 -0.087902 0.000000
v -0.063037 -0.012602 0.000970
vn -1.207432 -0.699575 0.000000
v -0.061435 -0.015366 -0.017064
vn -1.260363 -0.937490 0.000000
v -0.059528 -0.017930 -0.017064
vn -1.119675 -0.832842 0.000000
v -0.059528 -0.017930 0.000970
vn 0.005289 0.014026 0.000000
v 0.002823 0.005716 0.000970
vn 0.019800 0.031706 0.000000
v 0.003597 0.005233 -0.023414
vn 0.986724 2.802402 0.000000
v 0.001450 0.006208 -0.017064
vn 0.042755 0.013398 0.000000
v 0.006255 0.001232 0.000970
vn 0.119941 0.037585 0.000000
v 0.005928 0.002276 -0.023414
vn 1.541170 0.303641 0.000000
v 0.008697 -0.011163 0.000970
vn 0.000000 0.000000 -0.326976
v 0.006126 -0.005807 -0.023414
vn 0.000000 0.000000 -1.258265
v -0.031496 0.006350 -0.023414
vn 0.000000 0.000000 -0.516230
v 0.004568 0.004411 -0.023414
vn 0.000000 0.000000 -2.557417
v 0.005356 0.003412 -0.023414
vn 0.000000 0.000000 -2.055140
v 0.001266 0.006223 -0.023414
vn 0.000000 0.000000 -2.037597
v 0.000000 0.006350 -0.023414
vn 0.000000 0.000000 -3.013597
v 0.006158 -0.005615 -0.023414
vn 0.000000 0.000000 -3.036794
v 0.006346 -0.000222 -0.023414
vn 0.000000 0.000000 -2.885616
v 0.006047 -0.005984 -0.023414
vn 0.000000 0.000000 -0.127988
v 0.005926 -0.006136 -0.023414
vn 2.129438 2.151530 0.000000
v 0.004049 0.004925 0.000970
vn 0.012654 0.018545 0.000000
v 0.004049 0.004925 -0.017064
vn 2.202498 2.032910 0.000000
v 0.005063 0.003875 0.000970
vn 2.582405 1.633206 0.000000
v 0.005063 0.003875 -0.017064
vn 0.091123 0.052582 0.000000
v 0.005356 0.003412 0.007320
vn 0.014217 0.004803 0.000000
v 0.005928 0.002276 0.007320
vn 0.014217 0.004803 0.000000
v 0.005811 0.002622 -0.017064
vn 2.921809 0.987036 0.000000
v 0.005811 0.002622 0.000970
vn 0.000000 0.000000 2.501644
v 0.006126 -0.005807 0.007320
vn 0.000000 0.000000 0.697592
v 0.003597 0.005233 0.007320
vn 0.000000 0.000000 0.127990
v 0.005589 -0.006325 0.007320
vn 0.000000 0.000000 0.255985
v 0.006047 -0.005984 0.007320
vn 0.000000 0.000000 0.127988
v 0.005926 -0.006136 0.007320
# 108 vertices, 0 vertices normals

f 17//17 61//61 1//1
f 76//76 17//17 9//9
f 2//2 21//21 87//87
f 2//2 87//87 15//15
f 53//53 54//54 52//52
f 3//3 54//54 10//10
f 52//52 54//54 3//3
f 3//3 9//9 52//52
f 9//9 3//3 10//10
f 4//4 1//1 61//61
f 5//5 63//63 15//15
f 65//65 17//17 59//59
f 17//17 58//58 60//60
f 60//60 59//59 17//17
f 6//6 55//55 7//7
f 23//23 8//8 76//76
f 23//23 9//9 10//10
f 66//66 10//10 54//54
f 66//66 23//23 10//10
f 66//66 8//8 23//23
f 85//85 46//46 75//75
f 90//90 91//91 36//36
f 31//31 11//11 40//40
f 12//12 29//29 57//57
f 70//70 15//15 13//13
f 15//15 19//19 13//13
f 63//63 5//5 62//62
f 14//14 15//15 70//70
f 14//14 16//16 15//15
f 79//79 72//72 17//17
f 74//74 61//61 17//17
f 74//74 17//17 65//65
f 18//18 19//19 15//15
f 6//6 87//87 20//20
f 87//87 22//22 20//20
f 20//20 55//55 6//6
f 20//20 22//22 55//55
f 56//56 26//26 2//2
f 26//26 21//21 2//2
f 26//26 87//87 21//21
f 26//26 22//22 87//87
f 76//76 9//9 24//24
f 24//24 23//23 76//76
f 23//23 24//24 9//9
f 55//55 22//22 25//25
f 22//22 26//26 25//25
f 25//25 26//26 56//56
f 27//27 44//44 67//67
f 93//93 29//29 12//12
f 92//92 93//93 12//12
f 28//28 57//57 29//29
f 28//28 29//29 84//84
f 62//62 32//32 30//30
f 32//32 62//62 5//5
f 32//32 31//31 30//30
f 32//32 11//11 31//31
f 71//71 58//58 17//17
f 71//71 17//17 72//72
f 15//15 16//16 78//78
f 33//33 17//17 76//76
f 33//33 79//79 17//17
f 73//73 15//15 63//63
f 73//73 18//18 15//15
f 34//34 96//96 105//105
f 82//82 35//35 90//90
f 82//82 90//90 36//36
f 46//46 37//37 75//75
f 37//37 38//38 75//75
f 104//104 45//45 75//75
f 38//38 104//104 75//75
f 95//95 69//69 39//39
f 95//95 94//94 69//69
f 95//95 39//39 40//40
f 95//95 40//40 11//11
f 94//94 47//47 69//69
f 35//35 41//41 81//81
f 99//99 89//89 88//88
f 2//2 15//15 77//77
f 15//15 78//78 77//77
f 80//80 43//43 105//105
f 42//42 44//44 43//43
f 67//67 44//44 42//42
f 107//107 68//68 45//45
f 104//104 107//107 45//45
f 83//83 101//101 46//46
f 83//83 46//46 85//85
f 103//103 100//100 101//101
f 86//86 47//47 94//94
f 12//12 47//47 86//86
f 86//86 92//92 12//12
f 97//97 88//88 81//81
f 98//98 34//34 100//100
f 48//48 68//68 108//108
f 107//107 108//108 68//68
f 108//108 49//49 48//48
f 102//102 84//84 89//89
f 50//50 49//49 51//51
f 108//108 51//51 49//49
f 64//64 50//50 106//106
f 50//50 51//51 106//106
f 106//106 4//4 64//64
f 1//1 4//4 106//106
f 67//67 36//36 52//52
f 52//52 36//36 6//6
f 7//7 52//52 6//6
f 7//7 53//53 52//52
f 53//53 7//7 54//54
f 7//7 55//55 54//54
f 56//56 2//2 76//76
f 8//8 56//56 76//76
f 91//91 6//6 36//36
f 91//91 87//87 6//6
f 31//31 50//50 64//64
f 30//30 31//31 64//64
f 31//31 49//49 50//50
f 49//49 31//31 40//40
f 57//57 75//75 12//12
f 57//57 85//85 75//75
f 13//13 58//58 70//70
f 13//13 60//60 58//58
f 13//13 19//19 59//59
f 59//59 60//60 13//13
f 62//62 4//4 61//61
f 62//62 61//61 63//63
f 62//62 30//30 64//64
f 62//62 64//64 4//4
f 18//18 59//59 19//19
f 18//18 65//65 59//59
f 54//54 55//55 25//25
f 25//25 66//66 54//54
f 25//25 56//56 8//8
f 66//66 25//25 8//8
f 9//9 27//27 52//52
f 27//27 67//67 52//52
f 39//39 49//49 40//40
f 49//49 39//39 48//48
f 68//68 48//48 39//39
f 68//68 39//39 69//69
f 70//70 58//58 71//71
f 71//71 14//14 70//70
f 72//72 16//16 71//71
f 16//16 14//14 71//71
f 78//78 16//16 72//72
f 79//79 78//78 72//72
f 63//63 61//61 73//73
f 61//61 74//74 73//73
f 73//73 65//65 18//18
f 73//73 74//74 65//65
f 47//47 12//12 75//75
f 45//45 47//47 75//75
f 47//47 68//68 69//69
f 68//68 47//47 45//45
f 76//76 2//2 77//77
f 77//77 33//33 76//76
f 77//77 78//78 79//79
f 33//33 77//77 79//79
f 35//35 43//43 80//80
f 80//80 41//41 35//35
f 80//80 105//105 81//81
f 80//80 81//81 41//41
f 42//42 43//43 35//35
f 35//35 82//82 42//42
f 42//42 36//36 67//67
f 42//42 82//82 36//36
f 84//84 101//101 83//83
f 83//83 28//28 84//84
f 57//57 83//83 85//85
f 83//83 57//57 28//28
f 86//86 15//15 87//87
f 86//86 5//5 15//15
f 86//86 88//88 89//89
f 86//86 90//90 35//35
f 86//86 91//91 90//90
f 89//89 84//84 86//86
f 87//87 91//91 86//86
f 86//86 93//93 92//92
f 86//86 81//81 88//88
f 29//29 93//93 86//86
f 86//86 32//32 5//5
f 94//94 95//95 86//86
f 86//86 84//84 29//29
f 32//32 86//86 11//11
f 86//86 95//95 11//11
f 35//35 81//81 86//86
f 97//97 34//34 88//88
f 97//97 96//96 34//34
f 97//97 105//105 96//96
f 97//97 81//81 105//105
f 98//98 88//88 34//34
f 98//98 99//99 88//88
f 98//98 100//100 89//89
f 89//89 99//99 98//98
f 100//100 102//102 89//89
f 103//103 102//102 100//100
f 102//102 101//101 84//84
f 102//102 103//103 101//101
f 106//106 17//17 1//1
f 106//106 9//9 17//17
f 106//106 27//27 9//9
f 44//44 27//27 106//106
f 106//106 105//105 43//43
f 106//106 43//43 44//44
f 106//106 104//104 38//38
f 38//38 37//37 106//106
f 106//106 100//100 34//34
f 34//34 105//105 106//106
f 106//106 37//37 46//46
f 46//46 101//101 106//106
f 106//106 101//101 100//100
f 106//106 107//107 104//104
f 106//106 108//108 107//107
f 106//106 51//51 108//108
# 212 faces, 0 coords texture

# End of File